<svg xmlns="http://www.w3.org/2000/svg" xmlns:xlink="http://www.w3.org/1999/xlink" xmlns:lucid="lucid" width="475" height="414"><g transform="translate(-215 -94)" lucid:page-tab-id="0_0"><path d="M400 400h100v80H400z" stroke="#000" stroke-width="2" fill="#fff"/><use xlink:href="#a" transform="matrix(1,0,0,1,405,405) translate(31.025 27.525)"/><use xlink:href="#b" transform="matrix(1,0,0,1,405,405) translate(48.974999999999994 27.525)"/><use xlink:href="#c" transform="matrix(1,0,0,1,405,405) translate(14.549999999999997 49.125)"/><path d="M560 400h100v80H560z" stroke="#000" stroke-width="2" fill="#fff"/><use xlink:href="#a" transform="matrix(1,0,0,1,565,405) translate(21.025 38.4625)"/><use xlink:href="#d" transform="matrix(1,0,0,1,565,405) translate(38.974999999999994 38.4625)"/><path d="M560 330c0 16.57-13.43 30-30 30s-30-13.43-30-30 13.43-30 30-30 30 13.43 30 30z" stroke="#000" stroke-width="2" fill="#c1e4f7"/><use xlink:href="#e" transform="matrix(1,0,0,1,505,305) translate(10 30.025)"/><path d="M498 330h-48v50.5" stroke="#000" stroke-width="2" fill="none"/><path d="M499 329.98l.03 1.02h-1.06v-2h1.1z"/><path d="M450 395.76l-4.64-14.26h9.28z" stroke="#000" stroke-width="2"/><path d="M562 330h48v50.5" stroke="#000" stroke-width="2" fill="none"/><path d="M562.03 331h-1.1l.07-.98-.03-1.02h1.06z"/><path d="M610 395.76l-4.64-14.26h9.28z" stroke="#000" stroke-width="2"/><path d="M240 400h100v80H240z" stroke="#000" stroke-width="2" fill="#fff"/><use xlink:href="#a" transform="matrix(1,0,0,1,245,405) translate(3.075000000000003 38.4625)"/><use xlink:href="#f" transform="matrix(1,0,0,1,245,405) translate(21.025000000000002 38.4625)"/><use xlink:href="#g" transform="matrix(1,0,0,1,245,405) translate(46.025000000000006 38.4625)"/><path d="M480 230c0 16.57-13.43 30-30 30s-30-13.43-30-30 13.43-30 30-30 30 13.43 30 30z" stroke="#000" stroke-width="2" fill="#ffbbb1"/><use xlink:href="#h" transform="matrix(1,0,0,1,425,205) translate(17.025 30.025)"/><path d="M482 230h48v50.5" stroke="#000" stroke-width="2" fill="none"/><path d="M482.03 231h-1.1l.07-.98-.03-1.02h1.06z"/><path d="M530 295.76l-4.64-14.26h9.28z" stroke="#000" stroke-width="2"/><path d="M418 230H290v150.5" stroke="#000" stroke-width="2" fill="none"/><path d="M419 229.98l.03 1.02h-1.06v-2h1.1z"/><path d="M290 395.76l-4.64-14.26h9.27z" stroke="#000" stroke-width="2"/><path d="M450 121v2.97m0 3.97v5.95m0 3.96v5.95m0 3.97v5.95m0 3.97v5.94m0 3.97v5.96m0 3.96v2.98M450 121.03V120" stroke="#000" stroke-width="2" fill="none"/><path d="M450 195.76l-4.64-14.26h9.28z" stroke="#000" stroke-width="2"/><defs><path d="M24-231v-30h32v30H24zM24 0v-190h32V0H24" id="i"/><path d="M135-143c-3-34-86-38-87 0 15 53 115 12 119 90S17 21 10-45l28-5c4 36 97 45 98 0-10-56-113-15-118-90-4-57 82-63 122-42 12 7 21 19 24 35" id="j"/><g id="a"><use transform="matrix(0.05,0,0,0.05,0,0)" xlink:href="#i"/><use transform="matrix(0.05,0,0,0.05,3.95,0)" xlink:href="#j"/></g><path d="M141-36C126-15 110 5 73 4 37 3 15-17 15-53c-1-64 63-63 125-63 3-35-9-54-41-54-24 1-41 7-42 31l-33-3c5-37 33-52 76-52 45 0 72 20 72 64v82c-1 20 7 32 28 27v20c-31 9-61-2-59-35zM48-53c0 20 12 33 32 33 41-3 63-29 60-74-43 2-92-5-92 41" id="k"/><use transform="matrix(0.05,0,0,0.05,0,0)" xlink:href="#k" id="b"/><path d="M117-194c89-4 53 116 60 194h-32v-121c0-31-8-49-39-48C34-167 62-67 57 0H25l-1-190h30c1 10-1 24 2 32 11-22 29-35 61-36" id="l"/><path d="M84 4C-5 8 30-112 23-190h32v120c0 31 7 50 39 49 72-2 45-101 50-169h31l1 190h-30c-1-10 1-25-2-33-11 22-28 36-60 37" id="m"/><path d="M210-169c-67 3-38 105-44 169h-31v-121c0-29-5-50-35-48C34-165 62-65 56 0H25l-1-190h30c1 10-1 24 2 32 10-44 99-50 107 0 11-21 27-35 58-36 85-2 47 119 55 194h-31v-121c0-29-5-49-35-48" id="n"/><path d="M115-194c53 0 69 39 70 98 0 66-23 100-70 100C84 3 66-7 56-30L54 0H23l1-261h32v101c10-23 28-34 59-34zm-8 174c40 0 45-34 45-75 0-40-5-75-45-74-42 0-51 32-51 76 0 43 10 73 51 73" id="o"/><path d="M100-194c63 0 86 42 84 106H49c0 40 14 67 53 68 26 1 43-12 49-29l28 8c-11 28-37 45-77 45C44 4 14-33 15-96c1-61 26-98 85-98zm52 81c6-60-76-77-97-28-3 7-6 17-6 28h103" id="p"/><path d="M114-163C36-179 61-72 57 0H25l-1-190h30c1 12-1 29 2 39 6-27 23-49 58-41v29" id="q"/><g id="c"><use transform="matrix(0.05,0,0,0.05,0,0)" xlink:href="#l"/><use transform="matrix(0.05,0,0,0.05,10,0)" xlink:href="#m"/><use transform="matrix(0.05,0,0,0.05,20,0)" xlink:href="#n"/><use transform="matrix(0.05,0,0,0.05,34.95,0)" xlink:href="#o"/><use transform="matrix(0.05,0,0,0.05,44.95,0)" xlink:href="#p"/><use transform="matrix(0.05,0,0,0.05,54.95,0)" xlink:href="#q"/></g><path d="M100-194c62-1 85 37 85 99 1 63-27 99-86 99S16-35 15-95c0-66 28-99 85-99zM99-20c44 1 53-31 53-75 0-43-8-75-51-75s-53 32-53 75 10 74 51 75" id="r"/><path d="M85-194c31 0 48 13 60 33l-1-100h32l1 261h-30c-2-10 0-23-3-31C134-8 116 4 85 4 32 4 16-35 15-94c0-66 23-100 70-100zm9 24c-40 0-46 34-46 75 0 40 6 74 45 74 42 0 51-32 51-76 0-42-9-74-50-73" id="s"/><g id="d"><use transform="matrix(0.05,0,0,0.05,0,0)" xlink:href="#r"/><use transform="matrix(0.05,0,0,0.05,10,0)" xlink:href="#s"/><use transform="matrix(0.05,0,0,0.05,20,0)" xlink:href="#s"/></g><g id="e"><use transform="matrix(0.05,0,0,0.05,0,0)" xlink:href="#k"/><use transform="matrix(0.05,0,0,0.05,10,0)" xlink:href="#l"/><use transform="matrix(0.05,0,0,0.05,20,0)" xlink:href="#s"/></g><g id="f"><use transform="matrix(0.05,0,0,0.05,0,0)" xlink:href="#k"/><use transform="matrix(0.05,0,0,0.05,10,0)" xlink:href="#l"/></g><path d="M179-190L93 31C79 59 56 82 12 73V49c39 6 53-20 64-50L1-190h34L92-34l54-156h33" id="t"/><g id="g"><use transform="matrix(0.05,0,0,0.05,0,0)" xlink:href="#k"/><use transform="matrix(0.05,0,0,0.05,10,0)" xlink:href="#q"/><use transform="matrix(0.05,0,0,0.05,15.949999999999998,0)" xlink:href="#q"/><use transform="matrix(0.05,0,0,0.05,21.9,0)" xlink:href="#k"/><use transform="matrix(0.05,0,0,0.05,31.899999999999995,0)" xlink:href="#t"/></g><g id="h"><use transform="matrix(0.05,0,0,0.05,0,0)" xlink:href="#r"/><use transform="matrix(0.05,0,0,0.05,10,0)" xlink:href="#q"/></g></defs></g></svg>