<svg xmlns="http://www.w3.org/2000/svg" xmlns:xlink="http://www.w3.org/1999/xlink" xmlns:lucid="lucid" width="825" height="528"><g transform="translate(-178 -676)" lucid:page-tab-id="0_0"><path d="M200 980h100v80H200z" stroke="#000" stroke-width="2" fill="#fff"/><use xlink:href="#a" transform="matrix(1,0,0,1,205,985) translate(31.025 27.525)"/><use xlink:href="#b" transform="matrix(1,0,0,1,205,985) translate(48.974999999999994 27.525)"/><use xlink:href="#c" transform="matrix(1,0,0,1,205,985) translate(14.549999999999997 49.125)"/><path d="M360 980h100v80H360z" stroke="#000" stroke-width="2" fill="#fff"/><use xlink:href="#a" transform="matrix(1,0,0,1,365,985) translate(13.024999999999999 38.4625)"/><use xlink:href="#d" transform="matrix(1,0,0,1,365,985) translate(30.974999999999998 38.4625)"/><use xlink:href="#e" transform="matrix(1,0,0,1,365,985) translate(56.975 38.4625)"/><path d="M660 810c0 16.57-13.43 30-30 30s-30-13.43-30-30 13.43-30 30-30 30 13.43 30 30z" stroke="#000" stroke-width="2" fill="#ffbbb1"/><use xlink:href="#f" transform="matrix(1,0,0,1,605,785) translate(17.025 30.025)"/><path d="M630 701v2.97m0 3.97v5.95m0 3.96v5.95m0 3.97v5.95m0 3.97v5.94m0 3.97v5.96m0 3.96v2.98M630 701.03V700" stroke="#000" stroke-width="2" fill="none"/><path d="M630 775.76l-4.64-14.26h9.28z" stroke="#000" stroke-width="2"/><path d="M520 980h100v80H520z" stroke="#000" stroke-width="2" fill="#fff"/><use xlink:href="#a" transform="matrix(1,0,0,1,525,985) translate(8.024999999999999 38.4625)"/><use xlink:href="#g" transform="matrix(1,0,0,1,525,985) translate(25.974999999999998 38.4625)"/><use xlink:href="#h" transform="matrix(1,0,0,1,525,985) translate(51.975 38.4625)"/><path d="M440 910c0 16.57-13.43 30-30 30s-30-13.43-30-30 13.43-30 30-30 30 13.43 30 30z" stroke="#000" stroke-width="2" fill="#c1e4f7"/><use xlink:href="#i" transform="matrix(1,0,0,1,385,885) translate(10 30.025)"/><path d="M378 910H250v50.5" stroke="#000" stroke-width="2" fill="none"/><path d="M379 909.98l.03 1.02h-1.06v-2h1.1z"/><path d="M250 975.76l-4.64-14.26h9.28z" stroke="#000" stroke-width="2"/><path d="M410 942v18.5" stroke="#000" stroke-width="2" fill="none"/><path d="M409.98 941l1.02-.03v1.06h-2v-1.1z"/><path d="M410 975.76l-4.64-14.26h9.28z" stroke="#000" stroke-width="2"/><path d="M442 910h128v50.5" stroke="#000" stroke-width="2" fill="none"/><path d="M442.03 911h-1.1l.07-.98-.03-1.02h1.06z"/><path d="M570 975.76l-4.64-14.26h9.28z" stroke="#000" stroke-width="2"/><path d="M680 980h100v80H680z" stroke="#000" stroke-width="2" fill="#fff"/><use xlink:href="#a" transform="matrix(1,0,0,1,685,985) translate(31.025 27.525)"/><use xlink:href="#b" transform="matrix(1,0,0,1,685,985) translate(48.974999999999994 27.525)"/><use xlink:href="#j" transform="matrix(1,0,0,1,685,985) translate(13.524999999999999 49.125)"/><path d="M598 810H410v50.5" stroke="#000" stroke-width="2" fill="none"/><path d="M599 809.98l.03 1.02h-1.06v-2h1.1z"/><path d="M410 875.76l-4.64-14.26h9.28z" stroke="#000" stroke-width="2"/><path d="M860 910c0 16.57-13.43 30-30 30s-30-13.43-30-30 13.43-30 30-30 30 13.43 30 30z" stroke="#000" stroke-width="2" fill="#ffbbb1"/><use xlink:href="#f" transform="matrix(1,0,0,1,805,885) translate(17.025 30.025)"/><path d="M798 910h-68v50.5" stroke="#000" stroke-width="2" fill="none"/><path d="M799 909.98l.03 1.02h-1.06v-2h1.1z"/><path d="M730 975.76l-4.64-14.26h9.27z" stroke="#000" stroke-width="2"/><path d="M662 810h168v50.5" stroke="#000" stroke-width="2" fill="none"/><path d="M662.03 811h-1.1l.07-.98-.03-1.02h1.06z"/><path d="M830 875.76l-4.64-14.26h9.28z" stroke="#000" stroke-width="2"/><path d="M862 910h68v50.5" stroke="#000" stroke-width="2" fill="none"/><path d="M862.03 911h-1.1l.07-.98-.03-1.02h1.06z"/><path d="M930 975.76l-4.64-14.26h9.28z" stroke="#000" stroke-width="2"/><path d="M880 1100h100v80H880z" stroke="#000" stroke-width="2" fill="#fff"/><g><use xlink:href="#a" transform="matrix(1,0,0,1,885,1105) translate(31.025 27.525)"/><use xlink:href="#b" transform="matrix(1,0,0,1,885,1105) translate(48.974999999999994 27.525)"/><use xlink:href="#c" transform="matrix(1,0,0,1,885,1105) translate(14.549999999999997 49.125)"/></g><path d="M960 1010c0 16.57-13.43 30-30 30s-30-13.43-30-30 13.43-30 30-30 30 13.43 30 30z" stroke="#000" stroke-width="2" fill="#99d5ca"/><g><use xlink:href="#k" transform="matrix(1,0,0,1,905,985) translate(12.5 30.025)"/></g><path d="M930 1042v38.5" stroke="#000" stroke-width="2" fill="none"/><path d="M929.98 1041l1.02-.03v1.06h-2v-1.1z"/><path d="M930 1095.76l-4.64-14.26h9.28z" stroke="#000" stroke-width="2"/><defs><path d="M24-231v-30h32v30H24zM24 0v-190h32V0H24" id="l"/><path d="M135-143c-3-34-86-38-87 0 15 53 115 12 119 90S17 21 10-45l28-5c4 36 97 45 98 0-10-56-113-15-118-90-4-57 82-63 122-42 12 7 21 19 24 35" id="m"/><g id="a"><use transform="matrix(0.05,0,0,0.05,0,0)" xlink:href="#l"/><use transform="matrix(0.05,0,0,0.05,3.95,0)" xlink:href="#m"/></g><path d="M141-36C126-15 110 5 73 4 37 3 15-17 15-53c-1-64 63-63 125-63 3-35-9-54-41-54-24 1-41 7-42 31l-33-3c5-37 33-52 76-52 45 0 72 20 72 64v82c-1 20 7 32 28 27v20c-31 9-61-2-59-35zM48-53c0 20 12 33 32 33 41-3 63-29 60-74-43 2-92-5-92 41" id="n"/><use transform="matrix(0.05,0,0,0.05,0,0)" xlink:href="#n" id="b"/><path d="M117-194c89-4 53 116 60 194h-32v-121c0-31-8-49-39-48C34-167 62-67 57 0H25l-1-190h30c1 10-1 24 2 32 11-22 29-35 61-36" id="o"/><path d="M84 4C-5 8 30-112 23-190h32v120c0 31 7 50 39 49 72-2 45-101 50-169h31l1 190h-30c-1-10 1-25-2-33-11 22-28 36-60 37" id="p"/><path d="M210-169c-67 3-38 105-44 169h-31v-121c0-29-5-50-35-48C34-165 62-65 56 0H25l-1-190h30c1 10-1 24 2 32 10-44 99-50 107 0 11-21 27-35 58-36 85-2 47 119 55 194h-31v-121c0-29-5-49-35-48" id="q"/><path d="M115-194c53 0 69 39 70 98 0 66-23 100-70 100C84 3 66-7 56-30L54 0H23l1-261h32v101c10-23 28-34 59-34zm-8 174c40 0 45-34 45-75 0-40-5-75-45-74-42 0-51 32-51 76 0 43 10 73 51 73" id="r"/><path d="M100-194c63 0 86 42 84 106H49c0 40 14 67 53 68 26 1 43-12 49-29l28 8c-11 28-37 45-77 45C44 4 14-33 15-96c1-61 26-98 85-98zm52 81c6-60-76-77-97-28-3 7-6 17-6 28h103" id="s"/><path d="M114-163C36-179 61-72 57 0H25l-1-190h30c1 12-1 29 2 39 6-27 23-49 58-41v29" id="t"/><g id="c"><use transform="matrix(0.05,0,0,0.05,0,0)" xlink:href="#o"/><use transform="matrix(0.05,0,0,0.05,10,0)" xlink:href="#p"/><use transform="matrix(0.05,0,0,0.05,20,0)" xlink:href="#q"/><use transform="matrix(0.05,0,0,0.05,34.95,0)" xlink:href="#r"/><use transform="matrix(0.05,0,0,0.05,44.95,0)" xlink:href="#s"/><use transform="matrix(0.05,0,0,0.05,54.95,0)" xlink:href="#t"/></g><path d="M18-27v-27l151-64-151-65v-27l175 74v36" id="u"/><path d="M18-150v-26h174v26H18zm0 90v-26h174v26H18" id="v"/><g id="d"><use transform="matrix(0.05,0,0,0.05,0,0)" xlink:href="#u"/><use transform="matrix(0.05,0,0,0.05,10.5,0)" xlink:href="#v"/></g><path d="M27 0v-27h64v-190l-56 39v-29l58-41h29v221h61V0H27" id="w"/><path d="M101-251c68 0 85 55 85 127S166 4 100 4C33 4 14-52 14-124c0-73 17-127 87-127zm-1 229c47 0 54-49 54-102s-4-102-53-102c-51 0-55 48-55 102 0 53 5 102 54 102" id="x"/><g id="e"><use transform="matrix(0.05,0,0,0.05,0,0)" xlink:href="#w"/><use transform="matrix(0.05,0,0,0.05,10,0)" xlink:href="#x"/></g><path d="M100-194c62-1 85 37 85 99 1 63-27 99-86 99S16-35 15-95c0-66 28-99 85-99zM99-20c44 1 53-31 53-75 0-43-8-75-51-75s-53 32-53 75 10 74 51 75" id="y"/><g id="f"><use transform="matrix(0.05,0,0,0.05,0,0)" xlink:href="#y"/><use transform="matrix(0.05,0,0,0.05,10,0)" xlink:href="#t"/></g><path d="M18-100v-36l175-74v27L42-118l151 64v27" id="z"/><g id="g"><use transform="matrix(0.05,0,0,0.05,0,0)" xlink:href="#z"/><use transform="matrix(0.05,0,0,0.05,10.5,0)" xlink:href="#v"/></g><g id="h"><use transform="matrix(0.05,0,0,0.05,0,0)" xlink:href="#w"/><use transform="matrix(0.05,0,0,0.05,10,0)" xlink:href="#x"/><use transform="matrix(0.05,0,0,0.05,20,0)" xlink:href="#x"/></g><path d="M85-194c31 0 48 13 60 33l-1-100h32l1 261h-30c-2-10 0-23-3-31C134-8 116 4 85 4 32 4 16-35 15-94c0-66 23-100 70-100zm9 24c-40 0-46 34-46 75 0 40 6 74 45 74 42 0 51-32 51-76 0-42-9-74-50-73" id="A"/><g id="i"><use transform="matrix(0.05,0,0,0.05,0,0)" xlink:href="#n"/><use transform="matrix(0.05,0,0,0.05,10,0)" xlink:href="#o"/><use transform="matrix(0.05,0,0,0.05,20,0)" xlink:href="#A"/></g><path d="M101-234c-31-9-42 10-38 44h38v23H63V0H32v-167H5v-23h27c-7-52 17-82 69-68v24" id="B"/><path d="M96-169c-40 0-48 33-48 73s9 75 48 75c24 0 41-14 43-38l32 2c-6 37-31 61-74 61-59 0-76-41-82-99-10-93 101-131 147-64 4 7 5 14 7 22l-32 3c-4-21-16-35-41-35" id="C"/><path d="M59-47c-2 24 18 29 38 22v24C64 9 27 4 27-40v-127H5v-23h24l9-43h21v43h35v23H59v120" id="D"/><g id="j"><use transform="matrix(0.05,0,0,0.05,0,0)" xlink:href="#B"/><use transform="matrix(0.05,0,0,0.05,5,0)" xlink:href="#p"/><use transform="matrix(0.05,0,0,0.05,15,0)" xlink:href="#o"/><use transform="matrix(0.05,0,0,0.05,25,0)" xlink:href="#C"/><use transform="matrix(0.05,0,0,0.05,34,0)" xlink:href="#D"/><use transform="matrix(0.05,0,0,0.05,39,0)" xlink:href="#l"/><use transform="matrix(0.05,0,0,0.05,42.95,0)" xlink:href="#y"/><use transform="matrix(0.05,0,0,0.05,52.95,0)" xlink:href="#o"/></g><g id="k"><use transform="matrix(0.05,0,0,0.05,0,0)" xlink:href="#o"/><use transform="matrix(0.05,0,0,0.05,10,0)" xlink:href="#y"/><use transform="matrix(0.05,0,0,0.05,20,0)" xlink:href="#D"/></g></defs></g></svg>