<svg xmlns="http://www.w3.org/2000/svg" xmlns:xlink="http://www.w3.org/1999/xlink" xmlns:lucid="lucid" width="783" height="626"><g transform="translate(-1038 -257)" lucid:page-tab-id="0_0"><path d="M1420 390c0 16.57-13.43 30-30 30s-30-13.43-30-30 13.43-30 30-30 30 13.43 30 30z" stroke="#000" stroke-width="2" fill="#c1e4f7"/><use xlink:href="#a" transform="matrix(1,0,0,1,1365,365) translate(10 30.025)"/><path d="M1390 281v2.97m0 3.97v5.95m0 3.96v5.95m0 3.97v5.95m0 3.97v5.94m0 3.97v5.96m0 3.96v2.98M1390 281.03V280" stroke="#000" stroke-width="2" fill="none"/><path d="M1390 355.76l-4.64-14.26h9.28z" stroke="#000" stroke-width="2"/><path d="M1358 390h-168v50.5" stroke="#000" stroke-width="2" fill="none"/><path d="M1359 389.98l.03 1.02h-1.06v-2h1.1z"/><path d="M1190 455.76l-4.64-14.26h9.28z" stroke="#000" stroke-width="2"/><path d="M1540 560h100v80h-100z" stroke="#000" stroke-width="2" fill="#fff"/><use xlink:href="#b" transform="matrix(1,0,0,1,1545,565) translate(18.549999999999997 27.525)"/><use xlink:href="#c" transform="matrix(1,0,0,1,1545,565) translate(57.5 27.525)"/><use xlink:href="#d" transform="matrix(1,0,0,1,1545,565) translate(18.525 49.125)"/><path d="M1060 560h100v80h-100z" stroke="#000" stroke-width="2" fill="#fff"/><use xlink:href="#e" transform="matrix(1,0,0,1,1065,565) translate(4.5 38.4625)"/><use xlink:href="#f" transform="matrix(1,0,0,1,1065,565) translate(39.5 38.4625)"/><use xlink:href="#g" transform="matrix(1,0,0,1,1065,565) translate(65.5 38.4625)"/><path d="M1220 560h100v80h-100z" stroke="#000" stroke-width="2" fill="#fff"/><use xlink:href="#e" transform="matrix(1,0,0,1,1225,565) translate(4.5 38.4625)"/><use xlink:href="#h" transform="matrix(1,0,0,1,1225,565) translate(39.5 38.4625)"/><use xlink:href="#i" transform="matrix(1,0,0,1,1225,565) translate(65.5 38.4625)"/><path d="M1220 490c0 16.57-13.43 30-30 30s-30-13.43-30-30 13.43-30 30-30 30 13.43 30 30z" stroke="#000" stroke-width="2" fill="#c1e4f7"/><use xlink:href="#a" transform="matrix(1,0,0,1,1165,465) translate(10 30.025)"/><path d="M1158 490h-48v50.5" stroke="#000" stroke-width="2" fill="none"/><path d="M1159 489.98l.03 1.02h-1.06v-2h1.1z"/><path d="M1110 555.76l-4.64-14.26h9.28z" stroke="#000" stroke-width="2"/><path d="M1222 490h48v50.5" stroke="#000" stroke-width="2" fill="none"/><path d="M1222.03 491h-1.1l.07-.98-.03-1.02h1.06z"/><path d="M1270 555.76l-4.64-14.26h9.28z" stroke="#000" stroke-width="2"/><path d="M1300 780h100v80h-100z" stroke="#000" stroke-width="2" fill="#fff"/><use xlink:href="#b" transform="matrix(1,0,0,1,1305,785) translate(18.549999999999997 27.525)"/><use xlink:href="#c" transform="matrix(1,0,0,1,1305,785) translate(57.5 27.525)"/><use xlink:href="#j" transform="matrix(1,0,0,1,1305,785) translate(3.5249999999999986 49.125)"/><use xlink:href="#k" transform="matrix(1,0,0,1,1305,785) translate(51.475 49.125)"/><path d="M1460 780h100v80h-100z" stroke="#000" stroke-width="2" fill="#fff"/><use xlink:href="#l" transform="matrix(1,0,0,1,1465,785) translate(10 38.4625)"/><use xlink:href="#f" transform="matrix(1,0,0,1,1465,785) translate(44 38.4625)"/><use xlink:href="#m" transform="matrix(1,0,0,1,1465,785) translate(70 38.4625)"/><path d="M1460 710c0 16.57-13.43 30-30 30s-30-13.43-30-30 13.43-30 30-30 30 13.43 30 30z" stroke="#000" stroke-width="2" fill="#c1e4f7"/><use xlink:href="#a" transform="matrix(1,0,0,1,1405,685) translate(10 30.025)"/><path d="M1398 710h-48v50.5" stroke="#000" stroke-width="2" fill="none"/><path d="M1399 709.98l.03 1.02h-1.06v-2h1.1z"/><path d="M1350 775.76l-4.64-14.26h9.28z" stroke="#000" stroke-width="2"/><path d="M1462 710h48v50.5" stroke="#000" stroke-width="2" fill="none"/><path d="M1462.03 711h-1.1l.07-.98-.03-1.02h1.06z"/><path d="M1510 775.76l-4.64-14.26h9.28z" stroke="#000" stroke-width="2"/><path d="M1700 780h100v80h-100z" stroke="#000" stroke-width="2" fill="#fff"/><use xlink:href="#n" transform="matrix(1,0,0,1,1705,785) translate(18.549999999999997 27.525)"/><use xlink:href="#o" transform="matrix(1,0,0,1,1705,785) translate(57.5 27.525)"/><use xlink:href="#p" transform="matrix(1,0,0,1,1705,785) translate(25 49.125)"/><path d="M1540 490c0 16.57-13.43 30-30 30s-30-13.43-30-30 13.43-30 30-30 30 13.43 30 30z" stroke="#000" stroke-width="2" fill="#ffbbb1"/><use xlink:href="#q" transform="matrix(1,0,0,1,1485,465) translate(17.025 30.025)"/><path d="M1422 390h88v50.5" stroke="#000" stroke-width="2" fill="none"/><path d="M1422.03 391h-1.1l.07-.98-.03-1.02h1.06z"/><path d="M1510 455.76l-4.64-14.26h9.28z" stroke="#000" stroke-width="2"/><path d="M1542 490h48v50.5" stroke="#000" stroke-width="2" fill="none"/><path d="M1542.03 491h-1.1l.07-.98-.03-1.02h1.06z"/><path d="M1590 555.76l-4.64-14.26h9.28z" stroke="#000" stroke-width="2"/><path d="M1478 490h-48v170.5" stroke="#000" stroke-width="2" fill="none"/><path d="M1479 489.98l.03 1.02h-1.06v-2h1.1z"/><path d="M1430 675.76l-4.64-14.26h9.28z" stroke="#000" stroke-width="2"/><path d="M1780 590c0 16.57-13.43 30-30 30s-30-13.43-30-30 13.43-30 30-30 30 13.43 30 30z" stroke="#000" stroke-width="2" fill="#99d5ca"/><g><use xlink:href="#r" transform="matrix(1,0,0,1,1725,565) translate(12.5 30.025)"/></g><path d="M1422 390h328v150.5" stroke="#000" stroke-width="2" fill="none"/><path d="M1422.03 391h-1.1l.07-.98-.03-1.02h1.06z"/><path d="M1750 555.76l-4.64-14.26h9.28z" stroke="#000" stroke-width="2"/><path d="M1750 622v138.5" stroke="#000" stroke-width="2" fill="none"/><path d="M1749.98 621l1.02-.03v1.06h-2v-1.1z"/><path d="M1750 775.76l-4.64-14.26h9.28z" stroke="#000" stroke-width="2"/><defs><path d="M141-36C126-15 110 5 73 4 37 3 15-17 15-53c-1-64 63-63 125-63 3-35-9-54-41-54-24 1-41 7-42 31l-33-3c5-37 33-52 76-52 45 0 72 20 72 64v82c-1 20 7 32 28 27v20c-31 9-61-2-59-35zM48-53c0 20 12 33 32 33 41-3 63-29 60-74-43 2-92-5-92 41" id="s"/><path d="M117-194c89-4 53 116 60 194h-32v-121c0-31-8-49-39-48C34-167 62-67 57 0H25l-1-190h30c1 10-1 24 2 32 11-22 29-35 61-36" id="t"/><path d="M85-194c31 0 48 13 60 33l-1-100h32l1 261h-30c-2-10 0-23-3-31C134-8 116 4 85 4 32 4 16-35 15-94c0-66 23-100 70-100zm9 24c-40 0-46 34-46 75 0 40 6 74 45 74 42 0 51-32 51-76 0-42-9-74-50-73" id="u"/><g id="a"><use transform="matrix(0.05,0,0,0.05,0,0)" xlink:href="#s"/><use transform="matrix(0.05,0,0,0.05,10,0)" xlink:href="#t"/><use transform="matrix(0.05,0,0,0.05,20,0)" xlink:href="#u"/></g><path d="M24 0v-261h32V0H24" id="v"/><path d="M177-190C167-65 218 103 67 71c-23-6-38-20-44-43l32-5c15 47 100 32 89-28v-30C133-14 115 1 83 1 29 1 15-40 15-95c0-56 16-97 71-98 29-1 48 16 59 35 1-10 0-23 2-32h30zM94-22c36 0 50-32 50-73 0-42-14-75-50-75-39 0-46 34-46 75s6 73 46 73" id="w"/><g id="b"><use transform="matrix(0.05,0,0,0.05,0,0)" xlink:href="#v"/><use transform="matrix(0.05,0,0,0.05,3.95,0)" xlink:href="#s"/><use transform="matrix(0.05,0,0,0.05,13.949999999999998,0)" xlink:href="#t"/><use transform="matrix(0.05,0,0,0.05,23.95,0)" xlink:href="#w"/></g><path d="M24-231v-30h32v30H24zM24 0v-190h32V0H24" id="x"/><g id="c"><use transform="matrix(0.05,0,0,0.05,0,0)" xlink:href="#x"/><use transform="matrix(0.05,0,0,0.05,3.95,0)" xlink:href="#t"/></g><path d="M26 75v-336h71v23H56V52h41v23H26" id="y"/><path d="M96-169c-40 0-48 33-48 73s9 75 48 75c24 0 41-14 43-38l32 2c-6 37-31 61-74 61-59 0-76-41-82-99-10-93 101-131 147-64 4 7 5 14 7 22l-32 3c-4-21-16-35-41-35" id="z"/><path d="M100-194c62-1 85 37 85 99 1 63-27 99-86 99S16-35 15-95c0-66 28-99 85-99zM99-20c44 1 53-31 53-75 0-43-8-75-51-75s-53 32-53 75 10 74 51 75" id="A"/><path d="M115-194c53 0 69 39 70 98 0 66-23 100-70 100C84 3 66-7 56-30L54 0H23l1-261h32v101c10-23 28-34 59-34zm-8 174c40 0 45-34 45-75 0-40-5-75-45-74-42 0-51 32-51 76 0 43 10 73 51 73" id="B"/><path d="M3 75V52h41v-290H3v-23h71V75H3" id="C"/><g id="d"><use transform="matrix(0.05,0,0,0.05,0,0)" xlink:href="#y"/><use transform="matrix(0.05,0,0,0.05,5,0)" xlink:href="#z"/><use transform="matrix(0.05,0,0,0.05,14,0)" xlink:href="#A"/><use transform="matrix(0.05,0,0,0.05,24,0)" xlink:href="#B"/><use transform="matrix(0.05,0,0,0.05,34,0)" xlink:href="#A"/><use transform="matrix(0.05,0,0,0.05,44,0)" xlink:href="#v"/><use transform="matrix(0.05,0,0,0.05,47.95,0)" xlink:href="#C"/></g><path d="M100-194c63 0 86 42 84 106H49c0 40 14 67 53 68 26 1 43-12 49-29l28 8c-11 28-37 45-77 45C44 4 14-33 15-96c1-61 26-98 85-98zm52 81c6-60-76-77-97-28-3 7-6 17-6 28h103" id="D"/><g id="e"><use transform="matrix(0.05,0,0,0.05,0,0)" xlink:href="#s"/><use transform="matrix(0.05,0,0,0.05,10,0)" xlink:href="#w"/><use transform="matrix(0.05,0,0,0.05,20,0)" xlink:href="#D"/></g><path d="M18-27v-27l151-64-151-65v-27l175 74v36" id="E"/><path d="M18-150v-26h174v26H18zm0 90v-26h174v26H18" id="F"/><g id="f"><use transform="matrix(0.05,0,0,0.05,0,0)" xlink:href="#E"/><use transform="matrix(0.05,0,0,0.05,10.5,0)" xlink:href="#F"/></g><path d="M101-251c82-7 93 87 43 132L82-64C71-53 59-42 53-27h129V0H18c2-99 128-94 128-182 0-28-16-43-45-43s-46 15-49 41l-32-3c6-41 34-60 81-64" id="G"/><path d="M101-251c68 0 85 55 85 127S166 4 100 4C33 4 14-52 14-124c0-73 17-127 87-127zm-1 229c47 0 54-49 54-102s-4-102-53-102c-51 0-55 48-55 102 0 53 5 102 54 102" id="H"/><g id="g"><use transform="matrix(0.05,0,0,0.05,0,0)" xlink:href="#G"/><use transform="matrix(0.05,0,0,0.05,10,0)" xlink:href="#H"/></g><path d="M18-100v-36l175-74v27L42-118l151 64v27" id="I"/><g id="h"><use transform="matrix(0.05,0,0,0.05,0,0)" xlink:href="#I"/><use transform="matrix(0.05,0,0,0.05,10.5,0)" xlink:href="#F"/></g><path d="M134-131c28 9 52 24 51 62-1 50-34 73-85 73S17-19 16-69c0-36 21-54 49-61-75-25-45-126 34-121 46 3 78 18 79 63 0 33-17 51-44 57zm-34-11c31 1 46-15 46-44 0-28-17-43-47-42-29 0-46 13-45 42 1 28 16 44 46 44zm1 122c35 0 51-18 51-52 0-30-18-46-53-46-33 0-51 17-51 47 0 34 19 51 53 51" id="J"/><g id="i"><use transform="matrix(0.05,0,0,0.05,0,0)" xlink:href="#J"/><use transform="matrix(0.05,0,0,0.05,10,0)" xlink:href="#H"/></g><path d="M24-231v-30h32v30H24zM-9 49c24 4 33-6 33-30v-209h32V24c2 40-23 58-65 49V49" id="K"/><path d="M108 0H70L1-190h34L89-25l56-165h34" id="L"/><path d="M68-38c1 34 0 65-14 84H32c9-13 17-26 17-46H33v-38h35" id="M"/><g id="j"><use transform="matrix(0.05,0,0,0.05,0,0)" xlink:href="#y"/><use transform="matrix(0.05,0,0,0.05,5,0)" xlink:href="#K"/><use transform="matrix(0.05,0,0,0.05,8.95,0)" xlink:href="#s"/><use transform="matrix(0.05,0,0,0.05,18.95,0)" xlink:href="#L"/><use transform="matrix(0.05,0,0,0.05,27.950000000000003,0)" xlink:href="#s"/><use transform="matrix(0.05,0,0,0.05,37.95,0)" xlink:href="#M"/></g><path d="M118-107v75H92v-75H18v-26h74v-75h26v75h74v26h-74" id="N"/><g id="k"><use transform="matrix(0.05,0,0,0.05,0,0)" xlink:href="#z"/><use transform="matrix(0.05,0,0,0.05,9,0)" xlink:href="#N"/><use transform="matrix(0.05,0,0,0.05,19.5,0)" xlink:href="#N"/><use transform="matrix(0.05,0,0,0.05,30,0)" xlink:href="#C"/></g><path d="M141 0L90-78 38 0H4l68-98-65-92h35l48 74 47-74h35l-64 92 68 98h-35" id="O"/><path d="M115-194c55 1 70 41 70 98S169 2 115 4C84 4 66-9 55-30l1 105H24l-1-265h31l2 30c10-21 28-34 59-34zm-8 174c40 0 45-34 45-75s-6-73-45-74c-42 0-51 32-51 76 0 43 10 73 51 73" id="P"/><g id="l"><use transform="matrix(0.05,0,0,0.05,0,0)" xlink:href="#D"/><use transform="matrix(0.05,0,0,0.05,10,0)" xlink:href="#O"/><use transform="matrix(0.05,0,0,0.05,19,0)" xlink:href="#P"/></g><path d="M54-142c48-35 137-8 131 61C196 18 31 33 14-55l32-4c7 23 22 37 52 37 35-1 51-22 54-58 4-55-73-65-99-34H22l8-134h141v27H59" id="Q"/><use transform="matrix(0.05,0,0,0.05,0,0)" xlink:href="#Q" id="m"/><g id="n"><use transform="matrix(0.05,0,0,0.05,0,0)" xlink:href="#v"/><use transform="matrix(0.05,0,0,0.05,3.95,0)" xlink:href="#s"/><use transform="matrix(0.05,0,0,0.05,13.949999999999998,0)" xlink:href="#t"/><use transform="matrix(0.05,0,0,0.05,23.95,0)" xlink:href="#w"/></g><g id="o"><use transform="matrix(0.05,0,0,0.05,0,0)" xlink:href="#x"/><use transform="matrix(0.05,0,0,0.05,3.95,0)" xlink:href="#t"/></g><path d="M106-169C34-169 62-67 57 0H25v-261h32l-1 103c12-21 28-36 61-36 89 0 53 116 60 194h-32v-121c2-32-8-49-39-48" id="R"/><g id="p"><use transform="matrix(0.05,0,0,0.05,0,0)" xlink:href="#y"/><use transform="matrix(0.05,0,0,0.05,5,0)" xlink:href="#P"/><use transform="matrix(0.05,0,0,0.05,15,0)" xlink:href="#R"/><use transform="matrix(0.05,0,0,0.05,25,0)" xlink:href="#P"/><use transform="matrix(0.05,0,0,0.05,35,0)" xlink:href="#C"/></g><path d="M114-163C36-179 61-72 57 0H25l-1-190h30c1 12-1 29 2 39 6-27 23-49 58-41v29" id="S"/><g id="q"><use transform="matrix(0.05,0,0,0.05,0,0)" xlink:href="#A"/><use transform="matrix(0.05,0,0,0.05,10,0)" xlink:href="#S"/></g><path d="M59-47c-2 24 18 29 38 22v24C64 9 27 4 27-40v-127H5v-23h24l9-43h21v43h35v23H59v120" id="T"/><g id="r"><use transform="matrix(0.05,0,0,0.05,0,0)" xlink:href="#t"/><use transform="matrix(0.05,0,0,0.05,10,0)" xlink:href="#A"/><use transform="matrix(0.05,0,0,0.05,20,0)" xlink:href="#T"/></g></defs></g></svg>